<svg xmlns="http://www.w3.org/2000/svg" viewBox="0 0 733.33 600">
  <path fill="#0f0f0f" fill-rule="evenodd" d="M366.67,33.33c0-18.41,14.92-33.33,33.33-33.33h51.95c43.04,0,81.26,27.54,94.87,68.38l111.6,334.8c43.09,11.13,74.92,50.26,74.92,96.83,0,55.23-44.77,100-100,100s-100-44.77-100-100c0-39.83,23.29-74.22,56.99-90.3l-23.16-69.48-68.92,137.84c-16.94,33.88-51.57,55.28-89.44,55.28h-214.49c-13.73,38.84-50.77,66.67-94.31,66.67-55.23,0-100-44.77-100-100s44.77-100,100-100c43.54,0,80.58,27.83,94.31,66.66h214.49c12.63,0,24.17-7.13,29.82-18.42l98.24-196.48.98.49-54.26-162.79c-4.54-13.61-17.28-22.79-31.62-22.79h-51.95c-18.41,0-33.33-14.92-33.33-33.33ZM100,533.44c-18.47,0-33.44-14.97-33.44-33.44s14.97-33.44,33.44-33.44,33.44,14.97,33.44,33.44-14.97,33.44-33.44,33.44ZM633.33,533.44c-18.47,0-33.44-14.97-33.44-33.44s14.97-33.44,33.44-33.44,33.44,14.97,33.44,33.44-14.97,33.44-33.44,33.44Z"/>
</svg>
